<svg width="34" height="34" viewBox="0 0 34 34" fill="none" xmlns="http://www.w3.org/2000/svg" class="optionIcons">
<path d="M16.7344 0C7.51719 0 0 7.51719 0 16.7344C0 25.9516 7.51719 33.4688 16.7344 33.4688C25.9516 33.4688 33.4688 25.9516 33.4688 16.7344C33.4688 7.51719 25.9516 0 16.7344 0ZM16.7344 31.3438C8.68594 31.3438 2.125 24.7828 2.125 16.7344C2.125 8.68594 8.68594 2.125 16.7344 2.125C24.7828 2.125 31.3438 8.68594 31.3438 16.7344C31.3438 24.7828 24.7828 31.3438 16.7344 31.3438Z" fill="white"/>
<path d="M17.7969 14.2109H15.6719V24.8359H17.7969V14.2109Z" fill="white"/>
<path d="M17.7969 9.16406H15.6719V11.2891H17.7969V9.16406Z" fill="white"/>
</svg>
