<svg width="35" height="24" viewBox="0 0 35 24" fill="none" xmlns="http://www.w3.org/2000/svg">
<path d="M8.09153 0.00115527C8.09153 0.00115527 5.16285 0.209019 3.47782 0.719843C3.17248 0.812759 2.96677 1.0769 2.9678 1.37434V3.80984C2.09862 4.11541 1.23746 4.47869 0.394116 4.89324C0.149844 5.01321 -0.00205245 5.24886 2.09599e-05 5.50486V22.6705C0.00209106 22.9104 0.139496 23.1317 0.362292 23.2546C0.58483 23.3774 0.860667 23.3836 1.08964 23.2713C3.65425 22.0105 6.28947 21.2777 8.89111 21.2973H8.90276C12.0636 21.2973 14.9568 22.0574 16.7161 22.9172C16.8228 22.9718 16.9423 23.0012 17.0639 23.0031H17.806C17.9277 23.0012 18.0472 22.9718 18.1538 22.9172C19.9152 22.0565 22.8079 21.2866 25.9672 21.2866H25.9789C28.5807 21.2669 31.216 21.9997 33.7803 23.2605C34.0093 23.3729 34.2852 23.3666 34.5077 23.2438C34.7305 23.1212 34.8679 22.8997 34.87 22.6597V5.49407C34.8728 5.31039 34.7959 5.13318 34.6565 5.00219C34.517 4.87144 34.3268 4.79768 34.1281 4.79768C33.9293 4.79768 33.7392 4.87144 33.5997 5.00219C33.4602 5.13318 33.3834 5.31039 33.3862 5.49407V21.5758C30.9893 20.5365 28.4933 19.8962 25.967 19.9129C25.9631 19.9131 25.9592 19.9129 25.9553 19.9129C23.6854 19.9153 21.5864 20.2846 19.8346 20.8143C21.9086 19.7785 24.2209 19.2263 26.7086 19.2263C28.2493 19.2263 29.502 19.4486 30.9283 19.8808C31.1547 19.9498 31.4031 19.9139 31.5961 19.7841C31.7889 19.6545 31.9028 19.4469 31.902 19.2263V1.37409C31.903 1.07666 31.6973 0.812514 31.392 0.719586C29.859 0.255005 28.4064 0.000898023 26.7086 0.000898023C23.2831 0.000898023 20.1135 1.02587 17.4346 2.79031C14.7556 1.02587 11.586 0.000898023 8.16051 0.000898023C8.13723 -0.000299341 8.11482 -4.20914e-05 8.09153 0.00115527ZM8.16114 1.37428C11.3245 1.37428 14.2133 2.33243 16.6933 4.00277V20.117C14.1719 18.6478 11.2681 17.8532 8.16114 17.8532C6.82514 17.8532 5.64237 18.0527 4.45151 18.3468V1.92112C5.83355 1.60214 8.0517 1.3841 8.16114 1.37428ZM26.7093 1.37428C28.0598 1.37428 29.1996 1.5776 30.4189 1.91071V18.3468C29.228 18.0527 28.0452 17.8532 26.7093 17.8532C23.5904 17.8532 20.7044 18.6904 18.1771 20.1707V4.02393C20.6589 2.35047 23.5426 1.37428 26.7093 1.37428ZM2.96767 5.30098V19.2266C2.97051 19.4455 3.08592 19.6497 3.27818 19.7769C3.47044 19.9041 3.71678 19.9388 3.94141 19.8703C5.36769 19.4381 6.62035 19.2266 8.16104 19.2266C10.6674 19.2266 12.996 19.7779 15.0821 20.8251C13.3207 20.2906 11.203 19.9251 8.91475 19.924H8.90311C6.37679 19.9072 3.88081 20.5476 1.48387 21.5869V5.94469C1.97474 5.71432 2.47243 5.49927 2.96767 5.30098Z" fill="white"/>
</svg>
