<svg width="40" height="37" viewBox="0 0 40 37" fill="none" xmlns="http://www.w3.org/2000/svg">
<path d="M14.6154 0H3.84615C2.82655 0.0012706 1.84888 0.376416 1.12774 1.04316C0.406928 1.71022 0.00140659 2.61456 0 3.55769V13.5192C0.00137363 14.4624 0.406937 15.3667 1.12774 16.0338C1.84889 16.7005 2.82655 17.0756 3.84615 17.0769H14.6154C15.635 17.0757 16.6127 16.7005 17.3338 16.0338C18.0546 15.3667 18.4601 14.4624 18.4615 13.5192V3.55769C18.4602 2.61456 18.0546 1.71021 17.3338 1.04316C16.6126 0.376408 15.635 0.0013011 14.6154 0ZM16.9231 13.5192C16.9231 14.0853 16.6799 14.6285 16.2473 15.0287C15.8146 15.4288 15.2273 15.6538 14.6154 15.6538H3.8462C3.23425 15.6538 2.64699 15.4289 2.21437 15.0287C1.78176 14.6284 1.53855 14.0852 1.53855 13.5192V3.55769C1.53855 2.99164 1.78168 2.44842 2.21437 2.04826C2.64707 1.64809 3.23433 1.42312 3.8462 1.42312H14.6154C15.2274 1.42312 15.8146 1.64801 16.2473 2.04826C16.6799 2.4485 16.9231 2.99171 16.9231 3.55769V13.5192ZM36.1538 0H25.3846C24.365 0.0012706 23.3873 0.376416 22.6662 1.04316C21.9454 1.71022 21.5399 2.61456 21.5385 3.55769V13.5192C21.5398 14.4624 21.9454 15.3667 22.6662 16.0338C23.3874 16.7005 24.365 17.0756 25.3846 17.0769H36.1538C37.1735 17.0757 38.1511 16.7005 38.8723 16.0338C39.5931 15.3667 39.9986 14.4624 40 13.5192V3.55769C39.9986 2.61456 39.5931 1.71021 38.8723 1.04316C38.1511 0.376408 37.1735 0.0013011 36.1538 0ZM38.4615 13.5192C38.4615 14.0853 38.2184 14.6285 37.7857 15.0287C37.353 15.4288 36.7658 15.6538 36.1539 15.6538H25.3847C24.7727 15.6538 24.1855 15.4289 23.7528 15.0287C23.3202 14.6284 23.077 14.0852 23.077 13.5192V3.55769C23.077 2.99164 23.3201 2.44842 23.7528 2.04826C24.1855 1.64809 24.7728 1.42312 25.3847 1.42312H36.1539C36.7658 1.42312 37.3531 1.64801 37.7857 2.04826C38.2183 2.4485 38.4615 2.99171 38.4615 3.55769V13.5192ZM14.6154 19.9231H3.84615C2.82655 19.9243 1.84888 20.2995 1.12774 20.9662C0.406928 21.6333 0.00140659 22.5376 0 23.4808V33.4423C0.00137363 34.3854 0.406937 35.2898 1.12774 35.9568C1.84889 36.6236 2.82655 36.9987 3.84615 37H14.6154C15.635 36.9987 16.6127 36.6236 17.3338 35.9568C18.0546 35.2898 18.4601 34.3854 18.4615 33.4423V23.4808C18.4602 22.5376 18.0546 21.6333 17.3338 20.9662C16.6126 20.2995 15.635 19.9244 14.6154 19.9231ZM16.9231 33.4423C16.9231 34.0084 16.6799 34.5516 16.2473 34.9517C15.8146 35.3519 15.2273 35.5769 14.6154 35.5769H3.8462C3.23425 35.5769 2.64699 35.352 2.21437 34.9517C1.78176 34.5515 1.53855 34.0083 1.53855 33.4423V23.4808C1.53855 22.9147 1.78168 22.3715 2.21437 21.9713C2.64707 21.5712 3.23433 21.3462 3.8462 21.3462H14.6154C15.2274 21.3462 15.8146 21.5711 16.2473 21.9713C16.6799 22.3716 16.9231 22.9148 16.9231 23.4808V33.4423ZM30.7692 19.9231C28.3211 19.9231 25.9732 20.8226 24.2421 22.424C22.511 24.0253 21.5385 26.197 21.5385 28.4615C21.5385 30.7261 22.5109 32.8979 24.2421 34.4991C25.9733 36.1004 28.3211 37 30.7692 37C33.2174 37 35.5653 36.1005 37.2963 34.4991C39.0274 32.8978 40 30.7261 40 28.4615C39.9973 26.1976 39.024 24.0275 37.2936 22.4265C35.5628 20.8258 33.2167 19.9256 30.7692 19.9231ZM30.7692 35.5769C28.7291 35.5769 26.7727 34.8273 25.33 33.4928C23.8874 32.1584 23.0769 30.3487 23.0769 28.4615C23.0769 26.5744 23.8874 24.7647 25.33 23.4303C26.7727 22.0958 28.7291 21.3462 30.7692 21.3462C32.8094 21.3462 34.7658 22.0958 36.2084 23.4303C37.6511 24.7647 38.4615 26.5744 38.4615 28.4615C38.4591 30.3481 37.648 32.1567 36.2061 33.4906C34.7641 34.8245 32.8087 35.5747 30.7692 35.5769Z" fill="white"/>
</svg>
