<svg width="37" height="31" viewBox="0 0 37 31" fill="none" xmlns="http://www.w3.org/2000/svg">
<path d="M17.9762 1.70561e-06C17.5509 1.70561e-06 16.6129 0.261902 15.9217 0.804745L0.0089403 14.6255C-0.0260826 14.8461 0.0428078 15.07 0.197781 15.2405C0.352756 15.4107 0.708289 15.9798 0.948193 15.9844C1.42229 16.1029 1.97857 16.1483 2.14142 15.9844L18.0157 2.44382C18.1222 2.36008 18.5029 2.24951 18.4898 2.24951C18.4466 2.24951 18.6695 2.25438 18.8429 2.29802C19.016 2.34165 19.1841 2.42431 19.2089 2.44383L34.609 15.9844C34.7719 16.1483 35.5572 16.8346 36.0313 16.4688C36.5054 16.1029 36.8245 15.6702 36.9795 15.5C36.9979 15.4799 37.0145 15.2362 36.9795 15.0156L20.6527 0.804743C20.3104 0.535898 19.3145 0.0783241 19.0034 1.70561e-06C17.9762 -2.13201e-06 18.2254 1.70561e-06 17.9762 1.70561e-06ZM5.08734 15.3137C4.86553 15.317 4.65393 15.4018 4.49954 15.5498C4.34486 15.6978 4.26022 15.8967 4.26372 16.1029V30.223C4.26372 30.6523 4.63817 31 5.10046 31H31.8785C32.3408 31 32.7152 30.6523 32.7152 30.223V16.1029C32.7184 15.8948 32.6317 15.6945 32.4744 15.5463C32.3171 15.398 32.1026 15.3148 31.8785 15.3148C31.6546 15.3148 30.2483 15.398 30.091 15.5463C29.9337 15.6945 29.7858 15.8948 29.789 16.1029V22.634V28.3571H7.19047V22.634V16.1029C7.26949 15.1342 5.31383 15.3105 5.08734 15.3137Z" fill="white"/>
</svg>
