<svg width="35" height="32" viewBox="0 0 35 32" fill="none" xmlns="http://www.w3.org/2000/svg">
<path d="M25.6155 16.6012L25.0514 11.036C24.9915 10.4454 24.6946 9.92389 24.2512 9.55071C23.81 9.17939 23.2203 8.95414 22.5739 8.95414H20.8827V12.9273C20.8827 13.3441 20.5163 13.6828 20.0654 13.6828C19.6145 13.6828 19.2481 13.3441 19.2481 12.9273V8.95414H8.87211V12.9273C8.87211 13.3441 8.5057 13.6828 8.0548 13.6828C7.60394 13.6828 7.23749 13.3441 7.23749 12.9273V8.95414H5.54628C4.89991 8.95414 4.31116 9.17826 3.86899 9.55071C3.42557 9.9241 3.12869 10.4444 3.06758 11.036L1.64021 25.1207C1.60593 25.4595 1.64245 25.7775 1.74802 26.0699C1.8526 26.3601 2.02997 26.6338 2.27913 26.8855C2.52581 27.1363 2.80378 27.3241 3.10808 27.4484C3.41139 27.5719 3.74923 27.635 4.11763 27.635H18.9897C18.4586 26.6198 18.1608 25.481 18.1608 24.278C18.1608 22.1457 19.0955 20.2149 20.6074 18.8175C21.9193 17.6048 23.6674 16.7928 25.614 16.6004L25.6155 16.6012ZM25.8816 19.885C26.0311 19.7151 26.2597 19.6055 26.5163 19.6055C26.7726 19.6055 27.0014 19.7142 27.151 19.885L29.8902 22.6266C30.1948 22.9328 30.1734 23.4099 29.842 23.6924C29.5109 23.9739 28.9947 23.9542 28.6891 23.6478L27.3333 22.2909V28.1949C27.3333 28.6117 26.9669 28.9504 26.516 28.9504C26.0651 28.9504 25.6987 28.6117 25.6987 28.1949V22.2909L24.3418 23.6478C24.0373 23.9539 23.5203 23.9737 23.1889 23.6924C22.8578 23.4109 22.8364 22.933 23.1408 22.6266L25.8816 19.885ZM21.0867 27.9382C21.2919 28.1979 21.5185 28.443 21.7641 28.67C22.9798 29.7939 24.6594 30.4892 26.5153 30.4892C28.3712 30.4892 30.0505 29.7939 31.2664 28.67C32.4822 27.5462 33.2344 25.9937 33.2344 24.278C33.2344 22.5624 32.4822 21.0101 31.2664 19.886C30.0507 18.7622 28.3712 18.0669 26.5153 18.0669C24.6594 18.0669 22.9801 18.7622 21.7641 19.886C20.5484 21.0098 19.7962 22.5624 19.7962 24.278C19.7962 25.646 20.2749 26.912 21.0857 27.9382H21.0867ZM20.0312 29.1461H4.1187C3.5235 29.1461 2.96479 29.0396 2.45082 28.829C1.93686 28.6196 1.47529 28.3084 1.07363 27.9006C0.672939 27.4946 0.382302 27.0413 0.203921 26.5475C0.0265514 26.0556 -0.0353003 25.5323 0.0191043 24.9841L1.44647 10.8994C1.54584 9.91568 2.03844 9.05246 2.77024 8.4352C3.50532 7.817 4.48079 7.44364 5.54599 7.44364H7.23721V6.30788C7.23721 4.57249 8.00428 2.99536 9.24042 1.85272C10.4766 0.710086 12.1829 0 14.0599 0C15.9372 0 17.6433 0.710027 18.8794 1.85272C20.1154 2.99542 20.8836 4.57279 20.8836 6.30788V7.44364H22.5748C23.64 7.44364 24.6155 7.81703 25.3505 8.4352C26.0833 9.05246 26.575 9.91568 26.6743 10.8994L27.2501 16.5852C29.264 16.7471 31.074 17.5699 32.4234 18.8173C33.9352 20.2148 34.87 22.1456 34.87 24.2778C34.87 26.4102 33.9353 28.341 32.4234 29.7374C30.9116 31.1349 28.8238 32 26.5173 32C24.2106 32 22.1219 31.1347 20.6103 29.7374C20.4073 29.5498 20.2138 29.3512 20.0322 29.1447L20.0312 29.1461ZM8.87171 7.44379H19.2477V6.30803C19.2477 4.98944 18.6632 3.79142 17.7232 2.92138C16.7829 2.05222 15.4859 1.51208 14.0596 1.51208C12.6332 1.51208 11.3372 2.05127 10.396 2.92138C9.45474 3.79148 8.87146 4.9895 8.87146 6.30803L8.87171 7.44379Z" fill="white"/>
</svg>
